<svg xmlns="http://www.w3.org/2000/svg" xmlns:xlink="http://www.w3.org/1999/xlink" width="800" zoomAndPan="magnify" viewBox="0 0 600 599.999999" height="800" preserveAspectRatio="xMidYMid meet" version="1.0"><defs><g/><clipPath id="3ae7d4905c"><path d="M 0 132.960938 L 599.800781 132.960938 L 599.800781 479.574219 L 0 479.574219 Z M 0 132.960938 " clip-rule="nonzero"/></clipPath><clipPath id="6d86f56eb2"><path d="M 23.25 132.960938 L 575.941406 132.960938 C 588.78125 132.960938 599.191406 143.371094 599.191406 156.210938 L 599.191406 456.324219 C 599.191406 469.164062 588.78125 479.574219 575.941406 479.574219 L 23.25 479.574219 C 10.410156 479.574219 0 469.164062 0 456.324219 L 0 156.210938 C 0 143.371094 10.410156 132.960938 23.25 132.960938 Z M 23.25 132.960938 " clip-rule="nonzero"/></clipPath><clipPath id="f4b8ff7876"><path d="M 30 172 L 561 172 L 561 442.421875 L 30 442.421875 Z M 30 172 " clip-rule="nonzero"/></clipPath></defs><g clip-path="url(#3ae7d4905c)"><g clip-path="url(#6d86f56eb2)"><path fill="#fab713" d="M 0 132.960938 L 599.800781 132.960938 L 599.800781 479.574219 L 0 479.574219 Z M 0 132.960938 " fill-opacity="1" fill-rule="nonzero"/></g></g><g clip-path="url(#f4b8ff7876)"><path fill="#000000" d="M 183.585938 298.773438 C 183.585938 307.113281 190.34375 313.871094 198.683594 313.871094 C 207.019531 313.871094 213.777344 307.113281 213.777344 298.773438 C 213.777344 290.433594 207.019531 283.667969 198.683594 283.667969 C 190.34375 283.667969 183.585938 290.433594 183.585938 298.773438 Z M 138.898438 298.773438 C 138.898438 307.113281 145.660156 313.871094 153.996094 313.871094 C 162.332031 313.871094 169.09375 307.113281 169.09375 298.773438 C 169.09375 290.433594 162.332031 283.667969 153.996094 283.667969 C 145.660156 283.667969 138.898438 290.433594 138.898438 298.773438 Z M 93.839844 298.773438 C 93.839844 307.113281 100.597656 313.871094 108.9375 313.871094 C 117.277344 313.871094 124.035156 307.113281 124.035156 298.773438 C 124.035156 290.433594 117.277344 283.667969 108.9375 283.667969 C 100.597656 283.667969 93.839844 290.433594 93.839844 298.773438 Z M 147.71875 399.195312 C 139.765625 398.238281 131.945312 396.367188 124.476562 393.625 C 122.203125 392.796875 119.710938 392.792969 117.433594 393.613281 L 58.382812 414.980469 L 76.617188 365.167969 C 77.769531 362.011719 77.3125 358.488281 75.390625 355.738281 C 60.859375 334.910156 54.535156 309.550781 57.574219 284.320312 C 60.871094 256.941406 74.636719 232.480469 96.332031 215.453125 C 118.023438 198.421875 145.046875 190.863281 172.425781 194.160156 C 190.402344 196.324219 207.515625 203.179688 221.914062 213.972656 L 234.253906 197.496094 C 216.976562 184.546875 196.445312 176.328125 174.890625 173.722656 C 142.050781 169.765625 109.640625 178.835938 83.625 199.261719 C 57.605469 219.6875 41.097656 249.019531 37.140625 281.863281 C 33.710938 310.3125 40.21875 338.902344 55.5 362.988281 L 31.476562 428.625 C 30.101562 432.382812 31.027344 436.59375 33.847656 439.429688 C 35.8125 441.402344 38.449219 442.457031 41.140625 442.457031 C 42.3125 442.457031 43.496094 442.25 44.640625 441.84375 L 121 414.210938 C 128.855469 416.820312 137 418.636719 145.253906 419.632812 C 150.265625 420.234375 155.261719 420.53125 160.230469 420.53125 C 192.183594 420.53125 222.878906 408.222656 246.210938 385.652344 L 231.898438 370.855469 C 209.417969 392.605469 178.734375 402.9375 147.71875 399.195312 Z M 560.886719 278.179688 L 560.886719 261.015625 L 529.257812 261.015625 L 529.257812 223.863281 L 509.152344 230.363281 L 509.152344 261.015625 L 487.574219 261.015625 L 487.574219 278.179688 L 509.152344 278.179688 L 509.152344 352.488281 C 509.152344 377.011719 520.140625 389.269531 542.128906 389.269531 C 549.890625 389.269531 556.144531 387.96875 560.886719 385.347656 L 560.886719 368.183594 C 557.207031 370.960938 552.835938 372.351562 547.769531 372.351562 C 541.152344 372.351562 536.410156 370.554688 533.546875 366.957031 C 530.683594 363.359375 529.257812 357.351562 529.257812 348.933594 L 529.257812 278.179688 Z M 459.734375 323.0625 L 429.449219 327.226562 C 420.132812 328.539062 413.105469 330.847656 408.363281 334.15625 C 403.621094 337.46875 401.253906 343.335938 401.253906 351.753906 C 401.253906 357.882812 403.441406 362.890625 407.8125 366.773438 C 412.183594 370.660156 418.007812 372.597656 425.28125 372.597656 C 435.253906 372.597656 443.488281 369.101562 449.984375 362.113281 C 456.484375 355.125 459.734375 346.277344 459.734375 335.566406 Z M 479.839844 304.914062 L 479.839844 386.574219 L 459.734375 386.574219 L 459.734375 366.957031 L 459.242188 366.957031 C 450.496094 381.996094 437.621094 389.519531 420.625 389.519531 C 408.121094 389.519531 398.332031 386.210938 391.261719 379.589844 C 384.191406 372.964844 380.660156 364.175781 380.660156 353.222656 C 380.660156 329.765625 394.46875 316.113281 422.09375 312.265625 L 459.734375 306.996094 C 459.734375 285.664062 451.109375 274.992188 433.863281 274.992188 C 418.738281 274.992188 405.09375 280.144531 392.917969 290.445312 L 392.917969 269.847656 C 405.257812 262 419.476562 258.078125 435.582031 258.078125 C 465.082031 258.078125 479.839844 273.6875 479.839844 304.914062 Z M 367.15625 309.207031 L 367.15625 386.574219 L 347.054688 386.574219 L 347.054688 314.230469 C 347.054688 288.074219 337.324219 274.992188 317.875 274.992188 C 308.066406 274.992188 299.8125 278.78125 293.109375 286.339844 C 286.40625 293.898438 283.058594 303.609375 283.058594 315.457031 L 283.058594 386.574219 L 262.953125 386.574219 L 262.953125 200.691406 L 283.058594 200.691406 L 283.058594 281.863281 L 283.546875 281.863281 C 293.191406 266.003906 306.925781 258.078125 324.738281 258.078125 C 353.015625 258.078125 367.15625 275.121094 367.15625 309.207031 " fill-opacity="1" fill-rule="nonzero"/></g><g fill="#000000" fill-opacity="1"><g transform="translate(317.480006, 433.571445)"><g><path d="M 25.78125 -24.59375 L 15.0625 0 L 10.578125 0 L -0.171875 -24.59375 L 4.78125 -24.59375 L 12.96875 -5.625 L 21.21875 -24.59375 Z M 25.78125 -24.59375 "/></g></g></g><g fill="#000000" fill-opacity="1"><g transform="translate(356.064289, 433.571445)"><g><path d="M 21.75 -3.828125 L 21.75 0 L 3.296875 0 L 3.296875 -24.59375 L 21.25 -24.59375 L 21.25 -20.765625 L 7.875 -20.765625 L 7.875 -14.359375 L 19.734375 -14.359375 L 19.734375 -10.609375 L 7.875 -10.609375 L 7.875 -3.828125 Z M 21.75 -3.828125 "/></g></g></g><g fill="#000000" fill-opacity="1"><g transform="translate(392.577638, 433.571445)"><g><path d="M 19.390625 0 L 14.359375 -7.203125 C 14.148438 -7.179688 13.835938 -7.171875 13.421875 -7.171875 L 7.875 -7.171875 L 7.875 0 L 3.296875 0 L 3.296875 -24.59375 L 13.421875 -24.59375 C 15.546875 -24.59375 17.398438 -24.238281 18.984375 -23.53125 C 20.566406 -22.832031 21.78125 -21.828125 22.625 -20.515625 C 23.46875 -19.203125 23.890625 -17.644531 23.890625 -15.84375 C 23.890625 -13.988281 23.4375 -12.394531 22.53125 -11.0625 C 21.632812 -9.726562 20.34375 -8.734375 18.65625 -8.078125 L 24.3125 0 Z M 19.28125 -15.84375 C 19.28125 -17.40625 18.765625 -18.609375 17.734375 -19.453125 C 16.703125 -20.296875 15.191406 -20.71875 13.203125 -20.71875 L 7.875 -20.71875 L 7.875 -10.921875 L 13.203125 -10.921875 C 15.191406 -10.921875 16.703125 -11.347656 17.734375 -12.203125 C 18.765625 -13.054688 19.28125 -14.269531 19.28125 -15.84375 Z M 19.28125 -15.84375 "/></g></g></g><g fill="#000000" fill-opacity="1"><g transform="translate(431.232099, 433.571445)"><g><path d="M 10.921875 0.34375 C 9.023438 0.34375 7.191406 0.078125 5.421875 -0.453125 C 3.660156 -0.992188 2.265625 -1.707031 1.234375 -2.59375 L 2.8125 -6.140625 C 3.820312 -5.347656 5.054688 -4.695312 6.515625 -4.1875 C 7.984375 -3.6875 9.453125 -3.4375 10.921875 -3.4375 C 12.742188 -3.4375 14.109375 -3.726562 15.015625 -4.3125 C 15.921875 -4.90625 16.375 -5.679688 16.375 -6.640625 C 16.375 -7.335938 16.117188 -7.914062 15.609375 -8.375 C 15.109375 -8.832031 14.472656 -9.1875 13.703125 -9.4375 C 12.929688 -9.695312 11.875 -9.992188 10.53125 -10.328125 C 8.664062 -10.773438 7.148438 -11.21875 5.984375 -11.65625 C 4.828125 -12.101562 3.832031 -12.800781 3 -13.75 C 2.164062 -14.695312 1.75 -15.976562 1.75 -17.59375 C 1.75 -18.957031 2.117188 -20.191406 2.859375 -21.296875 C 3.597656 -22.410156 4.710938 -23.296875 6.203125 -23.953125 C 7.691406 -24.609375 9.507812 -24.9375 11.65625 -24.9375 C 13.15625 -24.9375 14.628906 -24.75 16.078125 -24.375 C 17.535156 -24 18.789062 -23.460938 19.84375 -22.765625 L 18.40625 -19.21875 C 17.332031 -19.84375 16.207031 -20.316406 15.03125 -20.640625 C 13.863281 -20.972656 12.726562 -21.140625 11.625 -21.140625 C 9.820312 -21.140625 8.476562 -20.832031 7.59375 -20.21875 C 6.71875 -19.613281 6.28125 -18.8125 6.28125 -17.8125 C 6.28125 -17.101562 6.53125 -16.523438 7.03125 -16.078125 C 7.539062 -15.640625 8.179688 -15.289062 8.953125 -15.03125 C 9.722656 -14.769531 10.78125 -14.476562 12.125 -14.15625 C 13.945312 -13.726562 15.441406 -13.285156 16.609375 -12.828125 C 17.785156 -12.378906 18.785156 -11.6875 19.609375 -10.75 C 20.441406 -9.8125 20.859375 -8.546875 20.859375 -6.953125 C 20.859375 -5.597656 20.488281 -4.367188 19.75 -3.265625 C 19.019531 -2.160156 17.90625 -1.28125 16.40625 -0.625 C 14.90625 0.0195312 13.078125 0.34375 10.921875 0.34375 Z M 10.921875 0.34375 "/></g></g></g><g fill="#000000" fill-opacity="1"><g transform="translate(466.306339, 433.571445)"><g><path d="M 21.75 -3.828125 L 21.75 0 L 3.296875 0 L 3.296875 -24.59375 L 21.25 -24.59375 L 21.25 -20.765625 L 7.875 -20.765625 L 7.875 -14.359375 L 19.734375 -14.359375 L 19.734375 -10.609375 L 7.875 -10.609375 L 7.875 -3.828125 Z M 21.75 -3.828125 "/></g></g></g></svg>